<?xml version="1.0" encoding="utf-8"?>
<!-- Generator: Adobe Illustrator 12.0.0, SVG Export Plug-In . SVG Version: 6.00 Build 51448)  -->
<!DOCTYPE svg PUBLIC "-//W3C//DTD SVG 1.1//EN" "http://www.w3.org/Graphics/SVG/1.1/DTD/svg11.dtd" [
	<!ENTITY ns_svg "http://www.w3.org/2000/svg">
	<!ENTITY ns_xlink "http://www.w3.org/1999/xlink">
]>
<svg  version="1.1" id="Layer_1" xmlns="&ns_svg;" xmlns:xlink="&ns_xlink;" width="371.549" height="47.788"
	 viewBox="0 0 371.549 47.788" overflow="visible" enable-background="new 0 0 371.549 47.788" xml:space="preserve">
<g>
	<path fill-rule="evenodd" clip-rule="evenodd" fill="#006FAF" d="M347.254,12.112h-15.209c-2.553,0.151-3.266,0.784-3.266,3.883
		v8.543h18.475V12.112z M355.352,5.271v37.252h-8.098V31.815h-18.475v10.708h-8.098V13.319c0-5.16,2.09-8.048,8.098-8.048H355.352z
		 M312.584,13.312v20.16c0,6.418-3.605,9.044-8.099,9.044h-25.543V5.264h25.543C311.383,5.264,312.584,9.65,312.584,13.312z
		 M304.389,15.554c0-2.041-1.244-3.449-3.422-3.449h-13.926v23.276l13.926-0.001c3.172-0.161,3.422-2.063,3.422-3.572V15.554z
		 M113.868,5.264h8.098v14.683h18.118V5.264h8.098v37.251h-8.098V27.313h-18.118v15.202h-8.098V5.264z M162.061,5.264l10.152,15.229
		l10.03-15.229h9.833L176.258,29.08v13.436h-8.099V29.078L152.231,5.264H162.061z M237.533,5.264h26.096
		c3.719,0,7.32,0.522,7.215,8.048v29.204h-8.098V15.988c0-3.208-0.385-3.883-2.902-3.883h-14.211v30.411h-8.1V5.264z M371.549,5.271
		v37.252h-8.1V5.271H371.549z M196.126,42.516h26.094c5.188,0,7.321-1.501,7.216-8.981V5.264h-8.098v26.593
		c0,3.188-0.385,3.575-2.902,3.575h-14.211l-0.001-30.168h-8.098V42.516z"/>
	<path fill-rule="evenodd" clip-rule="evenodd" fill="#006FAF" d="M56.707,29.416c0.714,3.69-1.22,6.755-2.827,9.73
		c-1.785,2.768-4.731,5.147-8.272,4.791c-7.946-0.119-15.712-1.339-22.914-3.512c-0.327-0.089-0.654-0.298-0.833-0.595
		c-0.149-0.417,0.06-0.804,0.357-1.071c6.577-5.327,14.403-7.796,22.14-10.386c2.886-0.833,5.952-1.726,9.195-1.309
		C54.891,27.243,56.23,28.166,56.707,29.416z M83.816,13.645c3.69,3.035,7.023,7.172,5.892,12.171
		c-1.845,7.38-9.879,11.308-16.277,13.807c-3.482,1.161-6.993,2.352-10.802,2.709c-0.238-0.03-0.625,0.029-0.685-0.328l0.089-0.416
		c5.416-6.101,9.522-12.944,13.124-19.878c1.666-3.125,3.214-6.338,4.642-9.493c0.208-0.238,0.417-0.357,0.655-0.446
		C81.792,11.889,82.745,12.931,83.816,13.645z M31.888,5.789l-0.119,0.446c-7.826,8.897-12.974,19.223-17.854,29.489
		c-0.952,0.893-1.875-0.298-2.738-0.685c-4.345-2.856-8.273-7.469-7.142-12.944C5.85,14.954,13.2,11.145,19.331,8.557
		c3.63-1.369,7.41-2.47,11.397-3.095C31.145,5.461,31.68,5.402,31.888,5.789z M70.723,7.217c0.446,0.238,0.982,0.327,1.25,0.773
		c0.238,0.506-0.238,0.833-0.506,1.161c-6.16,4.82-13.212,7.499-20.414,9.85c-3.661,0.893-7.351,2.5-11.427,1.607
		c-0.953-0.238-1.815-0.863-2.351-1.786c-1.012-2.797,0.357-5.713,1.547-8.153c1.577-3.065,4.375-6.666,8.243-6.725
		C55.397,3.884,63.253,5.134,70.723,7.217z M81.019,7.455c6.309,3.452,13.451,9.522,12.707,17.616
		c-0.863,7.499-7.856,12.736-14.105,15.891c-18.242,8.719-43.863,8.986-62.7,1.369C10.552,39.683,3.41,35.13,0.731,28.285
		c-2.053-5.624,0.446-11.486,4.643-15.384c8.778-7.975,19.967-10.712,31.484-12.29c12.499-1.518,25.651-0.179,36.84,3.66
		C76.198,5.194,78.668,6.206,81.019,7.455z"/>
</g>
</svg>
